<svg xmlns="http://www.w3.org/2000/svg" xmlns:xlink="http://www.w3.org/1999/xlink" width="250" height="192" version="1.1" viewBox="0 0 250 192"><title>Wiredcraft logo 2</title><desc>Created with Sketch.</desc><g id="Page-1" fill="none" fill-rule="evenodd" stroke="none" stroke-width="1"><g id="Light-background"><path id="W" fill="#E32929" d="M100,68 L160,68 L160,128 L100,128 L100,68 Z M160,128 L200,128 L200,188 L160,188 L160,128 Z M60,128 L100,128 L100,188 L60,188 L60,128 Z M100,8 L160,8 L160,68 L100,68 L100,8 Z M200,128 L260,128 L260,188 L200,188 L200,128 Z M0,68 L60,68 L60,128 L0,128 L0,68 Z M0,128 L60,128 L60,188 L0,128 Z M100,128 L160,128 L160,188 L100,128 Z M0,8 L60,8 L60,68 L0,68 L0,8 Z M200,68 L260,68 L260,128 L200,128 L200,68 Z M200,8 L260,8 L260,68 L200,68 L200,8 Z"/><g id="Shadows" fill="#000" fill-opacity=".1" transform="translate(60.000000, 128.000000)"><path id="Rectangle-1" d="M0,0 L40,60 L0,60 L0,0 Z"/><path id="Rectangle-1" d="M100,0 L140,60 L100,60 L100,0 Z"/></g></g></g></svg>